<svg width="72" height="72" viewBox="0 0 72 72" fill="none" xmlns="http://www.w3.org/2000/svg">
<circle cx="36" cy="36" r="36" fill="#B18F5D"/>
<circle cx="36" cy="36" r="35" stroke="url(#paint0_linear_2082_1514)" stroke-opacity="0.7" stroke-width="2"/>
<path d="M49.4313 48.7426C41.5143 56.4128 27.7786 55.564 20.9467 47.0217C15.1134 40.1227 15.8292 29.3989 22.5451 23.2542C29.736 16.2389 42.2388 16.2571 49.4342 23.2577C49.6025 23.4176 49.6038 23.6762 49.4375 23.838C49.4412 23.8364 41.6801 31.2208 41.6801 31.2208C45.89 35.7083 42.7012 42.8777 36.4112 43.1968V45.6996C44.4486 45.4324 49.0585 36.5626 44.3268 30.3588C44.2596 30.2698 44.2325 30.1589 44.2514 30.0506C44.2704 29.9426 44.3339 29.8462 44.4282 29.7824C44.6242 29.6498 44.8963 29.6927 45.0362 29.8785C50.1811 36.6218 45.1495 46.2636 36.4112 46.5269V49.1572C47.3989 48.872 53.7238 36.8834 47.3167 28.382C47.1801 28.1959 47.2271 27.9405 47.4221 27.8094C47.6171 27.6781 47.8872 27.72 48.0275 27.9036C54.8456 36.948 48.0984 49.7025 36.4116 49.9846V53.1901C50.8161 52.9101 59.1709 37.2292 50.8066 26.0784C50.74 25.989 50.7133 25.8778 50.7329 25.7698C50.7525 25.6618 50.8164 25.5654 50.9111 25.5022C51.1074 25.3702 51.3795 25.4148 51.5187 25.6009C54.1043 29.0727 55.313 33.2987 54.9307 37.5335C54.5488 41.7678 52.601 45.7379 49.4314 48.7434L49.4313 48.7426ZM39.0648 35.7462C39.0165 35.2117 38.8134 34.7 38.4784 34.2678L36.4123 36.2342V38.8976C37.1954 38.7925 37.9063 38.4076 38.3994 37.8219C38.8928 37.2359 39.1307 36.4931 39.0648 35.7462ZM35.5404 47.8296C34.23 48.2645 32.9531 48.2657 31.444 48.6252C29.6706 49.0168 28.9936 50.4892 28.7461 51.7682C30.8913 52.6571 33.1995 53.14 35.5403 53.1893L35.5404 47.8296ZM17.8488 35.998C17.7731 42.4385 21.8485 48.5933 27.9323 51.4102C28.3697 49.4652 29.531 48.1989 31.2452 47.8201C32.0878 47.6343 32.7803 47.5308 33.3915 47.4398C34.2712 47.3087 34.9333 47.2094 35.5393 46.9313V36.0634C35.5393 35.9542 35.585 35.8494 35.6664 35.7719L42.1378 29.6137C41.8458 28.7473 41.423 28.1709 40.8768 27.8998C39.5374 27.2346 38.0783 26.9975 37.329 26.9154C36.1497 26.8103 35.1618 25.6684 35.6813 24.5837C36.2312 23.3622 37.4249 22.252 38.9574 22.252C39.1639 22.2523 39.3694 22.2719 39.5718 22.3106C39.9686 22.3856 40.4296 22.392 40.8754 22.3978C42.1006 22.3885 43.4316 22.5051 43.5043 23.899C43.5185 24.3485 43.6161 24.793 43.7919 25.2107C43.8385 25.3123 43.8402 25.427 43.7966 25.5299C43.753 25.6324 43.6678 25.7141 43.56 25.7567C43.4522 25.7994 43.3312 25.7994 43.2234 25.7564C43.1159 25.7138 43.0307 25.6318 42.9875 25.5289C42.7722 25.022 42.6522 24.4831 42.6333 23.9368C42.6042 23.3379 42.2088 23.2424 40.8636 23.2245C40.3782 23.2181 39.8763 23.2113 39.4011 23.1213C37.8636 22.83 36.8436 24.1075 36.483 24.9083C36.2004 25.486 36.826 26.0429 37.4283 26.0945C38.2391 26.1832 39.8172 26.4408 41.2817 27.1679C41.9407 27.495 42.4561 28.0987 42.8195 28.9654L48.5057 23.5542C46.6272 21.8575 44.3887 20.5608 41.9391 19.7501C39.0371 20.9891 35.2997 20.8498 35.1416 20.8434C35.1189 20.8424 32.8602 20.7803 32.3988 22.0671C31.9507 23.3158 30.6095 23.9521 29.8504 24.2203C29.3225 24.4061 28.8412 24.6942 28.4366 25.0659C27.6931 25.7475 27.376 26.3319 27.589 26.6293C27.9107 27.0804 28.726 27.6264 29.8838 28.166C31.6174 28.8991 32.386 31.1597 32.0354 32.7234C31.8864 33.3645 31.5406 33.9499 31.0418 34.4056C30.5429 34.8612 29.9136 35.1672 29.2319 35.2848C28.0841 35.4832 27.1756 35.8084 26.5314 36.2509C26.1873 36.4941 25.9315 36.8321 25.7983 37.2186C25.6651 37.6053 25.6617 38.0215 25.7888 38.4102C26.214 39.7626 26.1228 41.3238 26.1113 41.4975C26.0977 43.0826 25.4535 44.445 24.1969 45.5463C24.0198 45.6991 23.7457 45.6885 23.5831 45.5216C23.4206 45.355 23.4304 45.0951 23.6051 44.9397C24.689 43.9913 25.2365 42.8156 25.2406 41.4535C25.2416 41.4381 25.3484 39.9036 24.9533 38.6463C24.2533 36.091 26.5962 34.8765 29.076 34.4718C29.5874 34.3843 30.0599 34.1559 30.4347 33.815C30.8092 33.4737 31.0694 33.0354 31.1823 32.5548C31.3263 31.8992 31.2293 31.1552 30.8937 30.3432C30.6351 29.7162 30.1376 29.2041 29.4995 28.9081C28.1699 28.2881 27.2841 27.6777 26.8673 27.0929C25.9976 26.0304 27.8569 24.0008 29.5458 23.4462C30.1606 23.2289 31.2415 22.7265 31.5738 21.8014C32.2443 19.9305 35.056 20.0132 35.1773 20.0177C35.2101 20.019 38.0495 20.1231 40.579 19.3579C29.3274 16.4276 17.6853 24.9139 17.8488 35.998ZM42.721 35.998C42.72 34.4574 42.1312 32.9687 41.0636 31.8072L39.0988 33.6768C41.0325 35.9701 39.4588 39.4431 36.4115 39.7306V42.3673C38.1197 42.2635 39.7221 41.5474 40.8939 40.3647C42.0657 39.1817 42.7187 37.6206 42.721 35.998Z" fill="white"/>
<defs>
<linearGradient id="paint0_linear_2082_1514" x1="-6.38711" y1="-8.94188e-07" x2="76.6453" y2="90.0002" gradientUnits="userSpaceOnUse">
<stop stop-color="white"/>
<stop offset="0.46" stop-color="white" stop-opacity="0"/>
<stop offset="0.965" stop-color="white"/>
</linearGradient>
</defs>
</svg>
