<svg width="72" height="72" viewBox="0 0 72 72" fill="none" xmlns="http://www.w3.org/2000/svg">
<circle cx="36" cy="36" r="36" fill="#B18F5D"/>
<circle cx="36" cy="36" r="35" stroke="url(#paint0_linear_2082_1500)" stroke-opacity="0.7" stroke-width="2"/>
<path d="M22 20.4763V51.5241C22.0015 52.4452 22.3632 53.3284 23.006 53.9802C23.6486 54.6316 24.5199 54.9985 25.4289 55H47.5711C48.4801 54.9985 49.3514 54.6315 49.994 53.9802C50.6369 53.3284 50.9986 52.4452 51 51.5241V20.4763C50.9985 19.5506 50.6333 18.6638 49.9856 18.0115C49.3376 17.3592 48.4602 16.9952 47.547 17H25.4048C24.5003 17.0082 23.635 17.3778 22.9974 18.0287C22.3598 18.6795 22.0014 19.559 22 20.4763ZM49.4085 47.0156L43.1609 53.379H24.4046C23.9289 53.379 23.5429 52.988 23.5429 52.5054V19.4761C23.5476 19.2431 23.6438 19.0219 23.8101 18.8614C23.9764 18.7007 24.1991 18.6143 24.4287 18.6206H48.5709C49.0469 18.6206 49.4327 19.0116 49.4327 19.4942L49.4085 47.0156Z" fill="white"/>
<path d="M45.0033 24.639H27.9718C27.6826 24.6613 27.3975 24.5602 27.1848 24.3606C26.9725 24.1607 26.852 23.9766 26.852 23.6828C26.852 23.389 26.9725 23.1996 27.1848 23C27.3975 22.8001 27.6825 22.6993 27.9718 22.7215H45.0033C45.2925 22.6993 45.5776 22.8001 45.7902 23C46.0028 23.1996 46.124 23.389 46.124 23.6828C46.124 23.9766 46.0028 24.1607 45.7902 24.3606C45.5776 24.5602 45.2925 24.6613 45.0033 24.639Z" fill="white"/>
<path d="M45.0033 29.5H27.9718C27.6826 29.5223 27.3975 29.4211 27.1848 29.2216C26.9725 29.0217 26.852 28.7145 26.852 28.4206C26.852 28.1268 26.9725 27.978 27.1848 27.7785C27.3975 27.5786 27.6825 27.4777 27.9718 27.5H45.0033C45.2925 27.4777 45.5776 27.5786 45.7902 27.7785C46.0028 27.978 46.124 28.1268 46.124 28.4206C46.124 28.7144 46.0028 29.0217 45.7902 29.2216C45.5776 29.4211 45.2925 29.5223 45.0033 29.5Z" fill="white"/>
<path d="M36.4878 32.1058C34.2292 32.1058 32.0633 33.0152 30.4662 34.6342C28.8692 36.2531 27.9721 38.4488 27.9721 40.7384C27.9721 43.0277 28.8692 45.2234 30.4662 46.8423C32.0633 48.4612 34.2292 49.3706 36.4878 49.3706C38.7462 49.3706 40.9121 48.4612 42.5091 46.8423C44.1062 45.2234 45.0033 43.0277 45.0033 40.7384C45.0033 38.4488 44.1062 36.2531 42.5091 34.6342C40.9121 33.0152 38.7462 32.1058 36.4878 32.1058ZM41.8737 38.6757L36.1467 44.4933C35.7977 44.8546 35.3199 45.0584 34.821 45.0584C34.3221 45.0584 33.8446 44.8546 33.4954 44.4933L31.1017 42.0668C30.8371 41.8266 30.6815 41.4867 30.6717 41.1267C30.6619 40.7667 30.7985 40.4184 31.0497 40.1637C31.301 39.9091 31.6445 39.7706 31.9997 39.7805C32.3548 39.7904 32.6901 39.9482 32.927 40.2167L34.8299 42.1457L40.0423 36.8618C40.2641 36.5565 40.6056 36.3636 40.9785 36.3329C41.3512 36.3022 41.7188 36.4367 41.9864 36.7016C42.2539 36.9665 42.3953 37.3362 42.3736 37.7149C42.3519 38.0933 42.1697 38.4439 41.8737 38.6757Z" fill="white"/>
<defs>
<linearGradient id="paint0_linear_2082_1500" x1="-6.38711" y1="-8.94188e-07" x2="76.6453" y2="90.0002" gradientUnits="userSpaceOnUse">
<stop stop-color="white"/>
<stop offset="0.46" stop-color="white" stop-opacity="0"/>
<stop offset="0.965" stop-color="white"/>
</linearGradient>
</defs>
</svg>
