<svg width="72" height="72" viewBox="0 0 72 72" fill="none" xmlns="http://www.w3.org/2000/svg">
<circle cx="36" cy="36" r="36" fill="#B18F5D"/>
<circle cx="36" cy="36" r="35" stroke="url(#paint0_linear_2082_1506)" stroke-opacity="0.7" stroke-width="2"/>
<path d="M35.4996 43.1119C32.3991 43.1119 29.4858 41.9426 27.296 39.8239C25.1058 37.7051 23.8972 34.8867 23.8972 31.8877C23.8972 28.8883 25.1059 26.0699 27.296 23.9516C29.4862 21.8328 32.3996 20.6636 35.4996 20.6636C38.6001 20.6636 41.5135 21.8329 43.7032 23.9516C45.8934 26.0703 47.102 28.8887 47.102 31.8877C47.102 34.8871 45.8933 37.7055 43.7032 39.8239C41.5082 41.9477 38.5997 43.1119 35.4996 43.1119ZM35.4996 22.141C29.9412 22.141 25.4195 26.5152 25.4195 31.8925C25.4195 37.2698 29.9411 41.644 35.4996 41.644C41.0581 41.644 45.5797 37.2699 45.5797 31.8925C45.5797 26.5153 41.0581 22.141 35.4996 22.141Z" fill="white"/>
<path d="M33.7746 36.2966L29.7232 32.3773L30.7954 31.3401L33.7746 34.2221L40.2028 28.0081L41.2751 29.0454L33.7746 36.2966Z" fill="white"/>
<path d="M35.4996 49.7959C34.7764 49.7959 34.0532 49.6246 33.3906 49.2824C33.254 49.214 33.1223 49.1355 32.9962 49.0524C32.7585 48.9009 32.536 48.7198 32.3336 48.5241L30.4017 46.6551C29.8455 46.1171 29.1018 45.8183 28.3128 45.8183H25.5818C23.1137 45.8183 21.1055 43.876 21.1055 41.488V38.846C21.1055 38.0924 20.7919 37.3535 20.2406 36.8252L18.3086 34.9562C16.5638 33.2683 16.5638 30.5234 18.3086 28.835L20.2406 26.9661C20.7919 26.4327 21.1055 25.6938 21.1055 24.9452V22.3033C21.1055 19.9157 23.1133 17.9729 25.5818 17.9729H28.3128C29.1019 17.9729 29.8451 17.6746 30.4017 17.1361L32.3336 15.2672C33.1781 14.4502 34.3013 14 35.5 14C36.6987 14 37.8166 14.4502 38.6664 15.2672L40.5983 17.1361C41.1545 17.6792 41.8982 17.9729 42.6872 17.9729H45.4182C47.8862 17.9729 49.8945 19.9153 49.8945 22.3033V24.9452C49.8945 25.7086 50.2029 26.4276 50.7594 26.9661L52.6914 28.835C54.4362 30.523 54.4362 33.2679 52.6914 34.9562L50.7586 36.8248C50.2024 37.3628 49.8936 38.0823 49.8936 38.8456V41.4876C49.8936 43.8752 47.8858 45.8179 45.4174 45.8179H42.6864C41.8973 45.8179 41.154 46.1163 40.5975 46.6547L38.6655 48.5237C38.4632 48.7195 38.2407 48.9005 38.003 49.052C37.8817 49.1351 37.7452 49.2085 37.6086 49.282C36.946 49.6246 36.2229 49.7959 35.4996 49.7959ZM25.5762 19.435C23.9474 19.435 22.6174 20.717 22.6174 22.2972V24.9392C22.6174 26.0937 22.152 27.1803 21.3076 27.9973L19.3756 29.8662C18.2223 30.982 18.2223 32.7973 19.3756 33.9126L21.3076 35.7816C22.152 36.5985 22.6174 37.6852 22.6174 38.8447V41.4867C22.6174 43.0624 23.9427 44.349 25.5762 44.349H28.3072C29.5006 44.349 30.6238 44.7992 31.4735 45.6162L33.4055 47.4851C33.542 47.6172 33.6886 47.7345 33.8456 47.8375C33.9267 47.8915 34.0126 47.94 34.1034 47.989C34.9784 48.4392 36.0204 48.4392 36.8902 47.989C36.9814 47.9451 37.0673 47.8911 37.148 47.8421C37.3046 47.7396 37.4564 47.6219 37.5881 47.4898L39.52 45.6208C40.3645 44.8039 41.4878 44.3536 42.6864 44.3536H45.4174C47.0462 44.3536 48.3761 43.0716 48.3761 41.4914V38.8494C48.3761 37.6949 48.8415 36.6036 49.686 35.7862L51.6179 33.9173C52.7713 32.8016 52.7713 30.9862 51.6179 29.8709L49.686 28.0019C48.8415 27.185 48.3761 26.0984 48.3761 24.9388V22.2968C48.3761 20.7211 47.0509 19.4345 45.4174 19.4345H42.6864C41.493 19.4345 40.365 18.9843 39.52 18.1673L37.5881 16.2984C36.4348 15.1827 34.5583 15.1827 33.4054 16.2984L31.4734 18.1673C30.6289 18.9843 29.5057 19.4345 28.3071 19.4345L25.5762 19.435Z" fill="white"/>
<path d="M30.0214 59L26.5314 54.8507L21.064 55.6532L25.5756 44.3558H28.3066C29.5001 44.3558 30.6233 44.806 31.473 45.623L33.4049 47.4919C33.5415 47.624 33.688 47.7413 33.8451 47.8443L34.3458 48.1721L30.0214 59ZM27.1638 53.2704L29.5511 56.1082L32.5147 48.6906C32.4541 48.6367 32.3934 48.583 32.3376 48.529L30.4057 46.6601C29.8495 46.122 29.1057 45.8233 28.3167 45.8233H26.6226L23.4261 53.8231L27.1638 53.2704Z" fill="white"/>
<path d="M40.9768 59L36.6524 48.1669L37.1532 47.8391C37.3098 47.7365 37.4567 47.6188 37.5933 47.4867L39.5252 45.6178C40.3697 44.8008 41.4929 44.3506 42.6916 44.3506H45.4226L49.9342 55.6481L44.4668 54.8455L40.9768 59ZM38.4835 48.691L41.4475 56.1137L43.8348 53.2759L47.5725 53.824L44.376 45.8242H42.6819C41.8928 45.8242 41.1495 46.1225 40.593 46.661L38.661 48.5299C38.6048 48.5835 38.5441 48.637 38.4835 48.691Z" fill="white"/>
<defs>
<linearGradient id="paint0_linear_2082_1506" x1="-6.38711" y1="-8.94188e-07" x2="76.6453" y2="90.0002" gradientUnits="userSpaceOnUse">
<stop stop-color="white"/>
<stop offset="0.46" stop-color="white" stop-opacity="0"/>
<stop offset="0.965" stop-color="white"/>
</linearGradient>
</defs>
</svg>
