<svg width="20" height="11" viewBox="0 0 20 11" fill="none" xmlns="http://www.w3.org/2000/svg">
<path fill-rule="evenodd" clip-rule="evenodd" d="M19.5996 5.4C19.5996 5.24087 19.5364 5.08826 19.4239 4.97574C19.3114 4.86321 19.1587 4.8 18.9996 4.8H5.43001C5.27088 4.8 5.11827 4.86321 5.00574 4.97574C4.89322 5.08826 4.83001 5.24087 4.83001 5.4C4.83001 5.55913 4.89322 5.71174 5.00574 5.82426C5.11827 5.93679 5.27088 6 5.43001 6H18.9996C19.1587 6 19.3114 5.93679 19.4239 5.82426C19.5364 5.71174 19.5996 5.55913 19.5996 5.4ZM19.5996 0.6C19.5996 0.44087 19.5364 0.288258 19.4239 0.175736C19.3114 0.0632142 19.1587 0 18.9996 0H0.999609C0.840479 0 0.687866 0.0632142 0.575344 0.175736C0.462822 0.288258 0.399609 0.44087 0.399609 0.6C0.399609 0.75913 0.462822 0.911742 0.575344 1.02426C0.687866 1.13679 0.840479 1.2 0.999609 1.2H18.9996C19.1587 1.2 19.3114 1.13679 19.4239 1.02426C19.5364 0.911742 19.5996 0.75913 19.5996 0.6ZM19.5996 10.2C19.5996 10.0409 19.5364 9.88826 19.4239 9.77574C19.3114 9.66321 19.1587 9.6 18.9996 9.6H0.999609C0.840479 9.6 0.687866 9.66321 0.575344 9.77574C0.462822 9.88826 0.399609 10.0409 0.399609 10.2C0.399609 10.3591 0.462822 10.5117 0.575344 10.6243C0.687866 10.7368 0.840479 10.8 0.999609 10.8H18.9996C19.1587 10.8 19.3114 10.7368 19.4239 10.6243C19.5364 10.5117 19.5996 10.3591 19.5996 10.2Z" fill="black"/>
</svg>
